<svg width="18" height="23" viewBox="0 0 18 23" fill="none" xmlns="http://www.w3.org/2000/svg">
<path fill-rule="evenodd" clip-rule="evenodd" d="M11.3279 8.83654C11.8129 8.67671 12.3358 8.48286 12.6091 8.03046C13.2414 6.98511 12.2837 5.65362 11.4718 5.10466C10.1174 4.18893 8.41711 3.82954 6.85105 4.21415C3.41877 5.05685 1.96777 8.7697 3.49713 12.0076C3.99251 13.0567 5.30728 13.296 6.09222 12.4669C7.72741 10.7396 9.03835 9.60528 11.2574 8.86009C11.2808 8.852 11.3045 8.84415 11.3279 8.83654ZM17.4935 12.5087C17.0896 11.2883 16.1139 8.32255 15.7773 7.14923C14.623 3.12622 10.9505 0.541016 7.04132 1.00435C3.27106 1.45008 0.319975 4.67201 0.0245517 8.66529C-0.158287 11.1344 0.686553 13.5472 2.34268 15.2847C3.38072 16.3743 3.97629 17.9239 3.97629 19.5355V21.5254C3.97629 21.8539 4.22826 22.12 4.53922 22.12C4.84996 22.12 5.10215 21.8539 5.10215 21.5254V19.5355C5.10215 17.6094 4.38543 15.7525 3.13596 14.441C1.71513 12.9499 0.990083 10.8785 1.1468 8.75805C1.40034 5.33252 3.93194 2.56846 7.16674 2.18623C10.4801 1.79663 13.7187 4.07619 14.6998 7.49435C15.0428 8.68907 16.0243 11.6736 16.4413 12.8836H13.8473V17.3002C13.8473 17.9196 13.3704 18.4234 12.7843 18.4234H10.604V21.5254C10.604 21.8539 10.8559 22.12 11.1669 22.12C11.4779 22.12 11.7298 21.8539 11.7298 21.5254V19.6126H12.7843C13.9912 19.6126 14.9732 18.5751 14.9732 17.3002V14.0728H16.4413C16.802 14.0728 17.1416 13.8873 17.3503 13.5771C17.5586 13.2672 17.6122 12.8679 17.4935 12.5087Z" fill="white"/>
</svg>
