<svg width="20" height="22" viewBox="0 0 20 22" fill="none" xmlns="http://www.w3.org/2000/svg">
<path d="M7.70833 7.83797H1.45833C1.07156 7.83797 0.700627 7.67534 0.427136 7.38586C0.153645 7.09638 0 6.70376 0 6.29438L0 2.32514C0 1.91576 0.153645 1.52314 0.427136 1.23366C0.700627 0.944183 1.07156 0.781555 1.45833 0.781555L7.70833 0.781555C8.09511 0.781555 8.46604 0.944183 8.73953 1.23366C9.01302 1.52314 9.16667 1.91576 9.16667 2.32514V6.29438C9.16667 6.70376 9.01302 7.09638 8.73953 7.38586C8.46604 7.67534 8.09511 7.83797 7.70833 7.83797V7.83797ZM1.45833 2.10463C1.40308 2.10463 1.35009 2.12786 1.31102 2.16922C1.27195 2.21057 1.25 2.26666 1.25 2.32514V6.29438C1.25 6.35286 1.27195 6.40895 1.31102 6.4503C1.35009 6.49166 1.40308 6.51489 1.45833 6.51489H7.70833C7.76359 6.51489 7.81658 6.49166 7.85565 6.4503C7.89472 6.40895 7.91667 6.35286 7.91667 6.29438V2.32514C7.91667 2.26666 7.89472 2.21057 7.85565 2.16922C7.81658 2.12786 7.76359 2.10463 7.70833 2.10463H1.45833Z" fill="white"/>
<path d="M7.70833 21.9507H1.45833C1.07156 21.9507 0.700627 21.7881 0.427136 21.4986C0.153645 21.2092 0 20.8165 0 20.4071L0 11.1456C0 10.7362 0.153645 10.3436 0.427136 10.0541C0.700627 9.76465 1.07156 9.60202 1.45833 9.60202H7.70833C8.09511 9.60202 8.46604 9.76465 8.73953 10.0541C9.01302 10.3436 9.16667 10.7362 9.16667 11.1456V20.4071C9.16667 20.8165 9.01302 21.2092 8.73953 21.4986C8.46604 21.7881 8.09511 21.9507 7.70833 21.9507V21.9507ZM1.45833 10.9251C1.40308 10.9251 1.35009 10.9483 1.31102 10.9897C1.27195 11.031 1.25 11.0871 1.25 11.1456V20.4071C1.25 20.4656 1.27195 20.5217 1.31102 20.5631C1.35009 20.6044 1.40308 20.6277 1.45833 20.6277H7.70833C7.76359 20.6277 7.81658 20.6044 7.85565 20.5631C7.89472 20.5217 7.91667 20.4656 7.91667 20.4071V11.1456C7.91667 11.0871 7.89472 11.031 7.85565 10.9897C7.81658 10.9483 7.76359 10.9251 7.70833 10.9251H1.45833Z" fill="white"/>
<path d="M18.5418 21.9508H12.2918C11.9051 21.9508 11.5341 21.7881 11.2606 21.4987C10.9871 21.2092 10.8335 20.8166 10.8335 20.4072V16.4379C10.8335 16.0286 10.9871 15.6359 11.2606 15.3465C11.5341 15.057 11.9051 14.8943 12.2918 14.8943H18.5418C18.9286 14.8943 19.2995 15.057 19.573 15.3465C19.8465 15.6359 20.0002 16.0286 20.0002 16.4379V20.4072C20.0002 20.8166 19.8465 21.2092 19.573 21.4987C19.2995 21.7881 18.9286 21.9508 18.5418 21.9508ZM12.2918 16.2174C12.2366 16.2174 12.1836 16.2407 12.1445 16.282C12.1054 16.3234 12.0835 16.3795 12.0835 16.4379V20.4072C12.0835 20.4657 12.1054 20.5217 12.1445 20.5631C12.1836 20.6044 12.2366 20.6277 12.2918 20.6277H18.5418C18.5971 20.6277 18.6501 20.6044 18.6891 20.5631C18.7282 20.5217 18.7502 20.4657 18.7502 20.4072V16.4379C18.7502 16.3795 18.7282 16.3234 18.6891 16.282C18.6501 16.2407 18.5971 16.2174 18.5418 16.2174H12.2918Z" fill="white"/>
<path d="M18.5418 13.1303H12.2918C11.9051 13.1303 11.5341 12.9676 11.2606 12.6782C10.9871 12.3887 10.8335 11.9961 10.8335 11.5867V2.32515C10.8335 1.91576 10.9871 1.52314 11.2606 1.23366C11.5341 0.944183 11.9051 0.781555 12.2918 0.781555L18.5418 0.781555C18.9286 0.781555 19.2995 0.944183 19.573 1.23366C19.8465 1.52314 20.0002 1.91576 20.0002 2.32515V11.5867C20.0002 11.9961 19.8465 12.3887 19.573 12.6782C19.2995 12.9676 18.9286 13.1303 18.5418 13.1303V13.1303ZM12.2918 2.10463C12.2366 2.10463 12.1836 2.12786 12.1445 2.16922C12.1054 2.21057 12.0835 2.26666 12.0835 2.32515V11.5867C12.0835 11.6452 12.1054 11.7013 12.1445 11.7426C12.1836 11.784 12.2366 11.8072 12.2918 11.8072H18.5418C18.5971 11.8072 18.6501 11.784 18.6891 11.7426C18.7282 11.7013 18.7502 11.6452 18.7502 11.5867V2.32515C18.7502 2.26666 18.7282 2.21057 18.6891 2.16922C18.6501 2.12786 18.5971 2.10463 18.5418 2.10463H12.2918Z" fill="white"/>
</svg>
