<svg width="20" height="16" viewBox="0 0 20 16" fill="none" xmlns="http://www.w3.org/2000/svg">
<path d="M3.68708 9.69484C4.95886 9.69484 5.9933 8.59968 5.9933 7.25379C5.9933 5.9079 4.95886 4.81274 3.68708 4.81274C2.4153 4.81274 1.38086 5.9079 1.38086 7.25379C1.38086 8.59968 2.41553 9.69484 3.68708 9.69484ZM3.68708 5.51839C4.59108 5.51839 5.32664 6.29694 5.32664 7.25379C5.32664 8.21064 4.59108 8.9892 3.68708 8.9892C2.78308 8.9892 2.04753 8.21064 2.04753 7.25379C2.04753 6.29694 2.78308 5.51839 3.68708 5.51839Z" fill="white"/>
<path d="M1.12244 15.0271H6.25222C6.87133 15.0271 7.37489 14.4941 7.37489 13.8391C7.37489 11.6871 5.72067 9.93616 3.68733 9.93616C1.65422 9.93592 0 11.6869 0 13.8391C0 14.4941 0.503556 15.0271 1.12244 15.0271ZM3.68733 10.6416C5.35311 10.6416 6.70822 12.0759 6.70822 13.8388C6.70822 14.1049 6.50378 14.3212 6.25222 14.3212H1.12244C0.871111 14.3215 0.666667 14.1049 0.666667 13.8391C0.666667 12.0759 2.02178 10.6416 3.68733 10.6416Z" fill="white"/>
<path d="M10.0174 5.107C11.2892 5.107 12.3236 4.01185 12.3236 2.66595C12.3236 1.32006 11.2889 0.22467 10.0174 0.22467C8.7456 0.22467 7.71094 1.31983 7.71094 2.66572C7.71094 4.01161 8.74538 5.107 10.0174 5.107ZM10.0174 0.930312C10.9214 0.930312 11.6569 1.70887 11.6569 2.66572C11.6569 3.62257 10.9214 4.40113 10.0174 4.40113C9.11316 4.40113 8.3776 3.62257 8.3776 2.66572C8.3776 1.70887 9.11316 0.930312 10.0174 0.930312Z" fill="white"/>
<path d="M7.45203 10.439H12.582C13.2009 10.439 13.7045 9.90605 13.7045 9.25098C13.7045 7.09901 12.0503 5.34808 10.0169 5.34808C7.98381 5.34808 6.32959 7.09901 6.32959 9.25098C6.32959 9.90605 6.83315 10.439 7.45203 10.439ZM10.0171 6.05372C11.6827 6.05372 13.0378 7.48806 13.0378 9.25098C13.0378 9.51701 12.8334 9.73341 12.582 9.73341H7.45203C7.2007 9.73341 6.99626 9.51701 6.99626 9.25098C6.99626 7.48806 8.35137 6.05372 10.0171 6.05372Z" fill="white"/>
<path d="M16.3126 9.69484C17.5843 9.69484 18.6188 8.59968 18.6188 7.25379C18.6188 5.9079 17.5841 4.81274 16.3126 4.81274C15.041 4.81274 14.0063 5.9079 14.0063 7.25379C14.0063 8.59968 15.0408 9.69484 16.3126 9.69484ZM16.3126 5.51839C17.2166 5.51839 17.9521 6.29694 17.9521 7.25379C17.9521 8.21064 17.2166 8.9892 16.3126 8.9892C15.4086 8.9892 14.673 8.21064 14.673 7.25379C14.673 6.29694 15.4083 5.51839 16.3126 5.51839Z" fill="white"/>
<path d="M16.3126 9.93591C14.2792 9.93591 12.625 11.6868 12.625 13.8388C12.625 14.4939 13.1286 15.0269 13.7477 15.0269H18.8774C19.4963 15.0269 19.9999 14.4939 19.9999 13.8388C19.9999 11.6868 18.3457 9.93591 16.3126 9.93591ZM18.8774 14.3215H13.7477C13.4963 14.3215 13.2917 14.1051 13.2917 13.839C13.2917 12.0761 14.6468 10.6418 16.3126 10.6418C17.9781 10.6416 19.3332 12.0759 19.3332 13.839C19.3332 14.1048 19.1288 14.3215 18.8774 14.3215Z" fill="white"/>
</svg>
