<svg width="15" height="22" viewBox="0 0 15 22" fill="none" xmlns="http://www.w3.org/2000/svg">
<path d="M14.4139 21.2893H0.552585C0.247857 21.2893 0 21.0278 0 20.7044V0.704946C0 0.381505 0.247008 0.120056 0.552585 0.120056H14.4139C14.7186 0.120056 14.9665 0.381505 14.9665 0.704946V20.7044C14.9656 21.0278 14.7186 21.2893 14.4139 21.2893ZM1.10517 20.1195H13.8621V1.28984H1.10517V20.1195Z" fill="white"/>
<path d="M11.3437 15.2994H3.62192C3.31719 15.2994 3.06934 15.0379 3.06934 14.7145C3.06934 14.391 3.31634 14.1296 3.62192 14.1296H11.3437C11.6484 14.1296 11.8963 14.391 11.8963 14.7145C11.8963 15.0379 11.6493 15.2994 11.3437 15.2994Z" fill="white"/>
<path d="M11.3437 18.2229H3.62192C3.31719 18.2229 3.06934 17.9615 3.06934 17.638C3.06934 17.3146 3.31634 17.0532 3.62192 17.0532H11.3437C11.6484 17.0532 11.8963 17.3146 11.8963 17.638C11.8963 17.9606 11.6493 18.2229 11.3437 18.2229Z" fill="white"/>
<path d="M7.48343 12.489C4.87499 12.489 2.75293 10.2419 2.75293 7.4819C2.75293 4.72187 4.87499 2.47485 7.48343 2.47485C10.0919 2.47485 12.2131 4.72097 12.2131 7.48101C12.2131 10.241 10.0919 12.489 7.48343 12.489ZM7.48343 3.64553C5.4836 3.64553 3.85725 5.36606 3.85725 7.4819C3.85725 9.59775 5.4836 11.3192 7.48343 11.3192C9.48241 11.3192 11.1088 9.59775 11.1088 7.4819C11.1088 5.36606 9.48241 3.64553 7.48343 3.64553Z" fill="white"/>
</svg>
