<svg width="22" height="17" viewBox="0 0 22 17" fill="none" xmlns="http://www.w3.org/2000/svg">
<path d="M16.9231 5.6698H16.7962C16.483 4.03732 15.6079 2.58625 14.3408 1.59828C13.0737 0.610306 11.505 0.15592 9.93914 0.32333C8.37332 0.490739 6.92213 1.268 5.86728 2.50423C4.81243 3.74045 4.22919 5.34744 4.23077 7.01323V7.46104C3.1087 7.46104 2.03259 7.93284 1.23916 8.77265C0.44574 9.61246 0 10.7515 0 11.9391C0 13.1268 0.44574 14.2658 1.23916 15.1056C2.03259 15.9455 3.1087 16.4173 4.23077 16.4173H16.9231C18.2696 16.4173 19.5609 15.8511 20.513 14.8433C21.4651 13.8356 22 12.4687 22 11.0435C22 9.61833 21.4651 8.2515 20.513 7.24373C19.5609 6.23596 18.2696 5.6698 16.9231 5.6698V5.6698ZM12.9377 9.88817L11.8462 8.72387V13.7304H10.1538V8.72387L9.06231 9.87922L7.86923 8.61639L11 5.3026L14.1392 8.62535L12.9377 9.88817Z" fill="white"/>
</svg>
