<svg width="51" height="35" viewBox="0 0 51 35" fill="none" xmlns="http://www.w3.org/2000/svg">
<path d="M35.0197 19.0001H16.9804C16.872 19.0001 16.7843 18.9097 16.7843 18.798V0.20213C16.7843 0.12041 16.8322 0.0465855 16.9053 0.0153976C16.9781 -0.0159876 17.0631 0.00158026 17.119 0.0592185L35.1583 18.655C35.2142 18.7129 35.2311 18.7997 35.2008 18.8753C35.1706 18.9509 35.099 19.0001 35.0197 19.0001ZM17.1765 18.5958H34.5463L17.1765 0.690081V18.5958Z" fill="#DDDDDD"/>
<path d="M35.0197 19.0001H16.9804C16.872 19.0001 16.7843 18.9097 16.7843 18.798V0.20213C16.7843 0.12041 16.8322 0.0465855 16.9053 0.0153976C16.9781 -0.0159876 17.0631 0.00158026 17.119 0.0592185L35.1583 18.655C35.2142 18.7129 35.2311 18.7997 35.2008 18.8753C35.1706 18.9509 35.099 19.0001 35.0197 19.0001ZM17.1765 18.5958H34.5463L17.1765 0.690081V18.5958Z" stroke="#DDDDDD"/>
<path d="M27.9609 8.89366C27.2041 8.89366 26.5883 8.25885 26.5883 7.47876C26.5883 6.69867 27.2041 6.06386 27.9609 6.06386C28.7176 6.06386 29.3334 6.69867 29.3334 7.47876C29.3334 8.25885 28.7176 8.89366 27.9609 8.89366ZM27.9609 6.46812C27.4201 6.46812 26.9805 6.92152 26.9805 7.47876C26.9805 8.03599 27.4201 8.4894 27.9609 8.4894C28.5016 8.4894 28.9413 8.03599 28.9413 7.47876C28.9413 6.92152 28.5016 6.46812 27.9609 6.46812Z" fill="#DDDDDD"/>
<path d="M27.9609 8.89366C27.2041 8.89366 26.5883 8.25885 26.5883 7.47876C26.5883 6.69867 27.2041 6.06386 27.9609 6.06386C28.7176 6.06386 29.3334 6.69867 29.3334 7.47876C29.3334 8.25885 28.7176 8.89366 27.9609 8.89366ZM27.9609 6.46812C27.4201 6.46812 26.9805 6.92152 26.9805 7.47876C26.9805 8.03599 27.4201 8.4894 27.9609 8.4894C28.5016 8.4894 28.9413 8.03599 28.9413 7.47876C28.9413 6.92152 28.5016 6.46812 27.9609 6.46812Z" stroke="#DDDDDD"/>
<path d="M24.1779 3.19951L23.9007 3.48534L27.0379 6.71939L27.3152 6.43357L24.1779 3.19951Z" fill="#DDDDDD"/>
<path d="M24.1779 3.19951L23.9007 3.48534L27.0379 6.71939L27.3152 6.43357L24.1779 3.19951Z" stroke="#DDDDDD"/>
<path d="M24.0393 5.16158C23.9309 5.16158 23.8432 5.07118 23.8432 4.95946V3.34243C23.8432 3.2307 23.9309 3.1403 24.0393 3.1403H25.6079C25.7163 3.1403 25.804 3.2307 25.804 3.34243C25.804 3.45415 25.7163 3.54456 25.6079 3.54456H24.2354V4.95946C24.2354 5.07118 24.1477 5.16158 24.0393 5.16158Z" fill="#DDDDDD"/>
<path d="M24.0393 5.16158C23.9309 5.16158 23.8432 5.07118 23.8432 4.95946V3.34243C23.8432 3.2307 23.9309 3.1403 24.0393 3.1403H25.6079C25.7163 3.1403 25.804 3.2307 25.804 3.34243C25.804 3.45415 25.7163 3.54456 25.6079 3.54456H24.2354V4.95946C24.2354 5.07118 24.1477 5.16158 24.0393 5.16158Z" stroke="#DDDDDD"/>
<path d="M32.6668 4.44683C32.5584 4.44683 32.4707 4.35643 32.4707 4.2447V2.8298H31.0981C30.9898 2.8298 30.9021 2.7394 30.9021 2.62767C30.9021 2.51595 30.9898 2.42554 31.0981 2.42554H32.8628V4.2447C32.8628 4.35643 32.7751 4.44683 32.6668 4.44683Z" fill="#DDDDDD"/>
<path d="M32.6668 4.44683C32.5584 4.44683 32.4707 4.35643 32.4707 4.2447V2.8298H31.0981C30.9898 2.8298 30.9021 2.7394 30.9021 2.62767C30.9021 2.51595 30.9898 2.42554 31.0981 2.42554H32.8628V4.2447C32.8628 4.35643 32.7751 4.44683 32.6668 4.44683Z" stroke="#DDDDDD"/>
<path d="M31.928 11.6765C31.8778 11.6765 31.8277 11.6567 31.7894 11.6173L28.6973 8.43018C28.6207 8.35123 28.6207 8.22332 28.6973 8.14436C28.7739 8.0654 28.898 8.0654 28.9745 8.14436L32.0666 11.3314C32.1432 11.4104 32.1432 11.5383 32.0666 11.6173C32.0283 11.6567 31.9782 11.6765 31.928 11.6765Z" fill="#DDDDDD"/>
<path d="M31.928 11.6765C31.8778 11.6765 31.8277 11.6567 31.7894 11.6173L28.6973 8.43018C28.6207 8.35123 28.6207 8.22332 28.6973 8.14436C28.7739 8.0654 28.898 8.0654 28.9745 8.14436L32.0666 11.3314C32.1432 11.4104 32.1432 11.5383 32.0666 11.6173C32.0283 11.6567 31.9782 11.6765 31.928 11.6765Z" stroke="#DDDDDD"/>
<path d="M32.1241 11.6765H30.3594C30.251 11.6765 30.1633 11.5861 30.1633 11.4743C30.1633 11.3626 30.251 11.2722 30.3594 11.2722H31.732V9.85732C31.732 9.7456 31.8197 9.65519 31.928 9.65519C32.0364 9.65519 32.1241 9.7456 32.1241 9.85732V11.6765Z" fill="#DDDDDD"/>
<path d="M32.1241 11.6765H30.3594C30.251 11.6765 30.1633 11.5861 30.1633 11.4743C30.1633 11.3626 30.251 11.2722 30.3594 11.2722H31.732V9.85732C31.732 9.7456 31.8197 9.65519 31.928 9.65519C32.0364 9.65519 32.1241 9.7456 32.1241 9.85732V11.6765Z" stroke="#DDDDDD"/>
<path d="M32.5281 2.48476L28.6521 6.48035L28.9294 6.76617L32.8054 2.77058L32.5281 2.48476Z" fill="#DDDDDD"/>
<path d="M32.5281 2.48476L28.6521 6.48035L28.9294 6.76617L32.8054 2.77058L32.5281 2.48476Z" stroke="#DDDDDD"/>
<path d="M10.9868 27.74H11.2508L13.0508 32H12.7268L12.1328 30.596H10.0988L9.50482 32H9.17482L10.9868 27.74ZM12.0488 30.344L11.1188 28.112L10.1708 30.344H12.0488ZM15.6454 29.84C15.6454 29.584 15.6894 29.332 15.7774 29.084C15.8694 28.832 16.0014 28.604 16.1734 28.4C16.3454 28.192 16.5554 28.026 16.8034 27.902C17.0554 27.778 17.3414 27.716 17.6614 27.716C18.0414 27.716 18.3654 27.804 18.6334 27.98C18.9014 28.152 19.1014 28.374 19.2334 28.646L18.9814 28.79C18.8814 28.594 18.7574 28.438 18.6094 28.322C18.4654 28.206 18.3094 28.124 18.1414 28.076C17.9734 28.024 17.8054 27.998 17.6374 27.998C17.3694 27.998 17.1294 28.052 16.9174 28.16C16.7094 28.268 16.5334 28.412 16.3894 28.592C16.2454 28.772 16.1354 28.972 16.0594 29.192C15.9874 29.412 15.9514 29.634 15.9514 29.858C15.9514 30.11 15.9954 30.35 16.0834 30.578C16.1714 30.802 16.2914 31.002 16.4434 31.178C16.5994 31.354 16.7794 31.494 16.9834 31.598C17.1914 31.702 17.4154 31.754 17.6554 31.754C17.8274 31.754 18.0014 31.726 18.1774 31.67C18.3574 31.61 18.5254 31.52 18.6814 31.4C18.8374 31.276 18.9634 31.116 19.0594 30.92L19.3234 31.046C19.2314 31.258 19.0934 31.438 18.9094 31.586C18.7254 31.734 18.5214 31.846 18.2974 31.922C18.0734 31.998 17.8514 32.036 17.6314 32.036C17.3434 32.036 17.0774 31.974 16.8334 31.85C16.5894 31.722 16.3774 31.554 16.1974 31.346C16.0214 31.134 15.8854 30.898 15.7894 30.638C15.6934 30.374 15.6454 30.108 15.6454 29.84ZM25.4346 28.016H23.8746V32H23.5686V28.016H22.0086V27.74H25.4346V28.016ZM28.4973 32V27.74H28.8033V32H28.4973ZM32.1771 27.74L33.7971 31.616L35.4171 27.74H35.7411L33.9471 32H33.6531L31.8531 27.74H32.1771ZM41.6314 31.724V32H38.7934V27.74H41.5774V28.016H39.0994V29.69H41.2654V29.954H39.0994V31.724H41.6314Z" fill="white"/>
</svg>
