<svg width="15" height="15" viewBox="0 0 15 15" fill="none" xmlns="http://www.w3.org/2000/svg">
<path d="M7.5 0C6.01664 0 4.56659 0.439867 3.33323 1.26398C2.09986 2.08809 1.13856 3.25943 0.570907 4.62987C0.00324964 6.00032 -0.145275 7.50832 0.144114 8.96317C0.433503 10.418 1.14781 11.7544 2.1967 12.8033C3.2456 13.8522 4.58197 14.5665 6.03682 14.8559C7.49168 15.1453 8.99968 14.9967 10.3701 14.4291C11.7406 13.8614 12.9119 12.9001 13.736 11.6668C14.5601 10.4334 15 8.98336 15 7.5C14.9951 5.51239 14.2033 3.60761 12.7978 2.20215C11.3924 0.7967 9.48761 0.00493817 7.5 0ZM7.5 13.8778C6.23859 13.8778 5.00551 13.5037 3.95668 12.8029C2.90786 12.1021 2.0904 11.1061 1.60768 9.94068C1.12496 8.77529 0.998656 7.49292 1.24475 6.25575C1.49083 5.01858 2.09826 3.88216 2.99021 2.99021C3.88216 2.09826 5.01858 1.49083 6.25575 1.24474C7.49293 0.998653 8.77529 1.12495 9.94068 1.60768C11.1061 2.0904 12.1021 2.90786 12.803 3.95668C13.5038 5.0055 13.8778 6.23859 13.8778 7.5C13.8778 9.1915 13.2059 10.8137 12.0098 12.0098C10.8137 13.2059 9.1915 13.8778 7.5 13.8778Z" fill="white"/>
<path d="M11.9701 6.75188L7.4813 7.10724L5.12469 4.73193L4.32045 5.53617L7.06983 8.26685L12.0636 7.87408L11.9701 6.75188Z" fill="white"/>
</svg>
