<svg width="67" height="42" viewBox="0 0 67 42" fill="none" xmlns="http://www.w3.org/2000/svg">
<path d="M9.31517 36.84C9.31517 36.584 9.35917 36.332 9.44717 36.084C9.53917 35.832 9.67117 35.604 9.84317 35.4C10.0152 35.192 10.2252 35.026 10.4732 34.902C10.7252 34.778 11.0112 34.716 11.3312 34.716C11.7112 34.716 12.0352 34.804 12.3032 34.98C12.5712 35.152 12.7712 35.374 12.9032 35.646L12.6512 35.79C12.5512 35.594 12.4272 35.438 12.2792 35.322C12.1352 35.206 11.9792 35.124 11.8112 35.076C11.6432 35.024 11.4752 34.998 11.3072 34.998C11.0392 34.998 10.7992 35.052 10.5872 35.16C10.3792 35.268 10.2032 35.412 10.0592 35.592C9.91517 35.772 9.80517 35.972 9.72917 36.192C9.65717 36.412 9.62117 36.634 9.62117 36.858C9.62117 37.11 9.66517 37.35 9.75317 37.578C9.84117 37.802 9.96117 38.002 10.1132 38.178C10.2692 38.354 10.4492 38.494 10.6532 38.598C10.8612 38.702 11.0852 38.754 11.3252 38.754C11.4972 38.754 11.6712 38.726 11.8472 38.67C12.0272 38.61 12.1952 38.52 12.3512 38.4C12.5072 38.276 12.6332 38.116 12.7292 37.92L12.9932 38.046C12.9012 38.258 12.7632 38.438 12.5792 38.586C12.3952 38.734 12.1912 38.846 11.9672 38.922C11.7432 38.998 11.5212 39.036 11.3012 39.036C11.0132 39.036 10.7472 38.974 10.5032 38.85C10.2592 38.722 10.0472 38.554 9.86717 38.346C9.69117 38.134 9.55517 37.898 9.45917 37.638C9.36317 37.374 9.31517 37.108 9.31517 36.84ZM17.8087 39.03C17.5127 39.03 17.2427 38.97 16.9987 38.85C16.7547 38.726 16.5447 38.562 16.3687 38.358C16.1927 38.154 16.0567 37.924 15.9607 37.668C15.8647 37.408 15.8167 37.142 15.8167 36.87C15.8167 36.586 15.8667 36.316 15.9667 36.06C16.0667 35.8 16.2067 35.57 16.3867 35.37C16.5707 35.166 16.7827 35.006 17.0227 34.89C17.2667 34.77 17.5307 34.71 17.8147 34.71C18.1147 34.71 18.3847 34.772 18.6247 34.896C18.8687 35.02 19.0787 35.186 19.2547 35.394C19.4307 35.602 19.5667 35.834 19.6627 36.09C19.7587 36.346 19.8067 36.606 19.8067 36.87C19.8067 37.158 19.7567 37.432 19.6567 37.692C19.5567 37.948 19.4147 38.178 19.2307 38.382C19.0507 38.582 18.8387 38.74 18.5947 38.856C18.3547 38.972 18.0927 39.03 17.8087 39.03ZM16.1227 36.87C16.1227 37.114 16.1647 37.348 16.2487 37.572C16.3327 37.796 16.4487 37.996 16.5967 38.172C16.7487 38.348 16.9267 38.488 17.1307 38.592C17.3387 38.696 17.5667 38.748 17.8147 38.748C18.0667 38.748 18.2967 38.694 18.5047 38.586C18.7127 38.478 18.8907 38.334 19.0387 38.154C19.1867 37.974 19.2987 37.774 19.3747 37.554C19.4547 37.33 19.4947 37.102 19.4947 36.87C19.4947 36.626 19.4527 36.392 19.3687 36.168C19.2887 35.944 19.1727 35.744 19.0207 35.568C18.8687 35.392 18.6887 35.252 18.4807 35.148C18.2767 35.044 18.0547 34.992 17.8147 34.992C17.5587 34.992 17.3267 35.046 17.1187 35.154C16.9107 35.262 16.7327 35.406 16.5847 35.586C16.4407 35.766 16.3267 35.968 16.2427 36.192C16.1627 36.412 16.1227 36.638 16.1227 36.87ZM26.8863 39V35.334L25.2123 38.202H25.0083L23.3343 35.334V39H23.0283V34.74H23.3343L25.1103 37.788L26.8863 34.74H27.1923V39H26.8863ZM30.7076 39V34.74H32.4596C32.6396 34.74 32.8036 34.778 32.9516 34.854C33.1036 34.93 33.2356 35.032 33.3476 35.16C33.4596 35.284 33.5456 35.424 33.6056 35.58C33.6696 35.736 33.7016 35.896 33.7016 36.06C33.7016 36.288 33.6496 36.504 33.5456 36.708C33.4456 36.908 33.3056 37.072 33.1256 37.2C32.9496 37.328 32.7396 37.392 32.4956 37.392H31.0136V39H30.7076ZM31.0136 37.11H32.4836C32.6716 37.11 32.8336 37.06 32.9696 36.96C33.1056 36.86 33.2096 36.73 33.2816 36.57C33.3536 36.41 33.3896 36.24 33.3896 36.06C33.3896 35.872 33.3456 35.7 33.2576 35.544C33.1736 35.384 33.0596 35.256 32.9156 35.16C32.7756 35.064 32.6196 35.016 32.4476 35.016H31.0136V37.11ZM36.8342 39V34.74H37.1402V38.724H39.6842V39H36.8342ZM45.5585 38.724V39H42.7205V34.74H45.5045V35.016H43.0265V36.69H45.1925V36.954H43.0265V38.724H45.5585ZM51.7703 35.016H50.2103V39H49.9043V35.016H48.3443V34.74H51.7703V35.016ZM57.671 38.724V39H54.833V34.74H57.617V35.016H55.139V36.69H57.305V36.954H55.139V38.724H57.671Z" fill="#5DFF59"/>
<path d="M33.0016 11.0829C31.4163 11.0829 30.1267 12.3725 30.1267 13.9581C30.1267 15.5436 31.4163 16.8332 33.0016 16.8332C34.5871 16.8332 35.8768 15.5436 35.8768 13.9581C35.8768 12.3725 34.5871 11.0829 33.0016 11.0829ZM33.0016 16.5285C31.5843 16.5285 30.4314 15.3754 30.4314 13.9581C30.4314 12.5407 31.5843 11.3876 33.0016 11.3876C34.4189 11.3876 35.5721 12.5407 35.5721 13.9581C35.5721 15.3754 34.4189 16.5285 33.0016 16.5285Z" fill="#5DFF59"/>
<path d="M42.4382 16.6396C41.8201 15.7532 41.0492 14.8398 40.1596 13.9286C41.0416 13.0102 41.8052 12.0903 42.4158 11.1989C43.9217 9.00109 44.3334 7.22165 43.5748 6.1895C43.3675 5.90697 43.1383 5.71949 42.847 5.58391C42.8569 5.51014 42.8639 5.4355 42.8639 5.35882C42.8639 4.43425 42.1117 3.68201 41.1871 3.68201C40.2626 3.68201 39.5103 4.43425 39.5103 5.35882C39.5103 5.41247 39.5135 5.46524 39.5185 5.51743C38.6884 5.69937 37.7903 5.98773 36.8483 6.37173C36.008 3.00353 34.6122 0.837463 33.0016 0.837463C31.3825 0.837463 29.9804 3.02627 29.1413 6.42567C28.5744 6.19854 28.021 6.00231 27.4881 5.8437C24.9345 5.08474 23.1145 5.23811 22.3643 6.27697C21.2634 7.80158 22.7259 10.8176 25.8314 13.9878C22.7524 17.1834 21.315 20.2113 22.4285 21.7269C22.8769 22.3374 23.6443 22.643 24.698 22.643C25.5622 22.643 26.6195 22.4363 27.8499 22.024C28.1108 22.6115 28.6989 23.0229 29.3824 23.0229C29.4544 23.0229 29.5247 23.0168 29.5941 23.0081C30.4796 25.6328 31.6866 27.0786 33.0016 27.0786C34.6207 27.0786 36.0229 24.8898 36.8617 21.4907C37.4285 21.7179 37.9819 21.9141 38.5149 22.0727C39.5838 22.3905 40.5241 22.5482 41.311 22.5482C42.4047 22.5482 43.2024 22.2436 43.6386 21.6394C44.3888 20.6006 43.9626 18.8252 42.4382 16.6396ZM41.1874 3.9867C41.9437 3.9867 42.5595 4.6022 42.5595 5.35882C42.5595 6.11544 41.944 6.73065 41.1874 6.73065C40.4311 6.73065 39.8153 6.11515 39.8153 5.35882C39.8153 4.60249 40.4308 3.9867 41.1874 3.9867ZM39.5756 5.81687C39.7756 6.51897 40.4215 7.03534 41.1871 7.03534C41.9265 7.03534 42.5543 6.55396 42.7768 5.88831C42.9922 5.99969 43.1683 6.15043 43.3293 6.36969C43.9955 7.27647 43.5707 8.97369 42.1642 11.0266C41.5638 11.9028 40.813 12.8072 39.9459 13.7111C39.2362 12.9997 38.454 12.2917 37.6154 11.6007C37.5029 9.79504 37.2632 8.12726 36.9212 6.67088C37.8589 6.28659 38.7516 5.99823 39.5756 5.81687ZM35.5969 17.4901C34.7432 18.1173 33.883 18.694 33.0226 19.2185C32.1607 18.7019 31.2933 18.1304 30.4358 17.5114C29.8279 17.0723 29.2468 16.6239 28.6922 16.1711C28.6485 15.4459 28.6191 14.7109 28.6191 13.9581C28.6191 13.2128 28.6421 12.4833 28.6841 11.7725C29.2319 11.3179 29.806 10.8671 30.4067 10.426C31.2612 9.79824 32.1243 9.22006 32.9803 8.69728C33.8425 9.21394 34.7102 9.78571 35.5677 10.405H35.568C36.1745 10.8429 36.7582 11.2934 37.3186 11.7512C37.3614 12.4687 37.3851 13.2052 37.3851 13.9581C37.3851 14.7033 37.362 15.4325 37.32 16.1434C36.7681 16.6008 36.1937 17.0516 35.5969 17.4901ZM37.2935 16.5609C37.1775 18.201 36.9535 19.7267 36.6451 21.0735C35.5733 20.6239 34.4533 20.0571 33.3212 19.3944C34.1425 18.8879 34.963 18.3342 35.7774 17.7359C36.2993 17.3522 36.8054 16.9598 37.2935 16.5609ZM29.3824 19.6693C29.2832 19.6693 29.1864 19.6795 29.0917 19.6961C28.9182 18.7004 28.7954 17.6598 28.7179 16.5863C29.2101 16.981 29.7232 17.3729 30.2574 17.7584C31.0761 18.3494 31.9039 18.8966 32.7278 19.3955C32.0841 19.7792 31.4406 20.1332 30.8003 20.4551C30.5032 19.9839 29.9795 19.6693 29.3824 19.6693ZM28.3703 15.9063C27.6088 15.2695 26.9046 14.6252 26.2652 13.9858C26.9017 13.3388 27.6029 12.6865 28.3625 12.041C28.331 12.6658 28.3141 13.3052 28.3141 13.9581C28.3141 14.6187 28.3368 15.266 28.3703 15.9063ZM28.71 11.3546C28.8264 9.71485 29.05 8.18908 29.3585 6.84261C30.4303 7.29221 31.5499 7.85902 32.6824 8.52176C31.8642 9.02675 31.0411 9.58161 30.2262 10.1805C29.7002 10.5671 29.1949 10.9593 28.71 11.3546ZM33.2745 8.52001C34.423 7.83424 35.5549 7.25197 36.6334 6.79188C36.9468 8.14563 37.1737 9.68307 37.2918 11.3363C36.7941 10.9359 36.278 10.5423 35.7459 10.158C34.9271 9.56645 34.0991 9.01917 33.2745 8.52001ZM37.6399 12.0165C38.3907 12.6451 39.0925 13.2866 39.7345 13.9304C39.0934 14.5838 38.3918 15.2354 37.6408 15.8742C37.6723 15.2497 37.6892 14.6106 37.6892 13.9581C37.6895 13.2968 37.672 12.6489 37.6399 12.0165ZM33.0016 1.14215C34.4662 1.14215 35.7642 3.25573 36.5605 6.49215C35.4111 6.97965 34.2029 7.60361 32.9789 8.34215C31.7703 7.62664 30.5737 7.01872 29.4305 6.542C30.2259 3.2776 31.5295 1.14215 33.0016 1.14215ZM22.6119 6.45512C22.9854 5.93787 23.7085 5.67634 24.6998 5.67634C25.4564 5.67634 26.3693 5.82883 27.4018 6.13585C27.9391 6.29563 28.4975 6.49448 29.0698 6.72511C28.7331 8.1745 28.4972 9.83032 28.3867 11.622C27.5335 12.3337 26.751 13.0533 26.0489 13.7665C23.0772 10.7301 21.6106 7.84153 22.6119 6.45512ZM22.674 21.5467C21.6616 20.1688 23.1043 17.2679 26.0503 14.2073C26.7559 14.9121 27.5411 15.6223 28.3963 16.3244C28.4727 17.519 28.6027 18.6759 28.7957 19.7775C28.1598 20.016 27.7053 20.6283 27.7053 21.3461C27.7053 21.4802 27.7228 21.61 27.7525 21.7351C25.1966 22.592 23.3938 22.5261 22.674 21.5467ZM28.0103 21.3458C28.0103 20.5895 28.6258 19.974 29.3824 19.974C30.1387 19.974 30.7545 20.5895 30.7545 21.3458C30.7545 22.1024 30.139 22.7179 29.3824 22.7179C28.6258 22.7182 28.0103 22.1024 28.0103 21.3458ZM33.0016 26.774C31.8493 26.774 30.7216 25.3782 29.8938 22.9425C30.5688 22.7255 31.0589 22.0922 31.0589 21.3458C31.0589 21.1269 31.0155 20.9184 30.9388 20.7265C31.6315 20.3784 32.3275 19.9927 33.0235 19.5734C34.232 20.2889 35.4292 20.8971 36.5725 21.3738C35.7776 24.6385 34.4738 26.774 33.0016 26.774ZM43.3917 21.461C42.733 22.3733 40.9877 22.4899 38.6021 21.7803C38.0647 21.6205 37.5061 21.4216 36.9337 21.191C37.2705 19.741 37.5064 18.0846 37.6172 16.2921C38.4569 15.5894 39.2391 14.8701 39.9482 14.1476C40.823 15.0441 41.581 15.9425 42.1887 16.8137C43.6118 18.8549 44.0503 20.549 43.3917 21.461Z" fill="#5DFF59"/>
</svg>
